<?xml version="1.0" encoding="iso-8859-1"?>
<!-- Generator: Adobe Illustrator 19.1.0, SVG Export Plug-In . SVG Version: 6.00 Build 0)  -->
<svg xmlns="http://www.w3.org/2000/svg" xmlns:xlink="http://www.w3.org/1999/xlink" version="1.1" id="Capa_1" x="0px" y="0px" viewBox="0 0 488.8 488.8" style="enable-background:new 0 0 488.8 488.8;" xml:space="preserve" width="512px" height="512px">
<g>
	<g>
		<g>
			<path d="M280.1,368.95c0-20.1,5-39.4,14.4-56.6c-13.3-7.5-23.1-12.4-27.2-14.4c-1.3-0.6-2-1.9-2-3.3v-79     c9.9-6.6,16.5-17.9,16.5-30.7v-81.9c0-40.7-33-73.8-73.8-73.8h-8.8h-8.8c-40.7,0-73.8,33-73.8,73.8v81.9     c0,12.8,6.6,24.1,16.5,30.7v79c0,1.4-0.8,2.7-2,3.3c-11.3,5.5-66,33.1-116.7,74.8c-9.2,7.5-14.4,18.8-14.4,30.7v56.1h199.1h123.3     c-2.7-2.2-5.2-4.6-7.7-7.1C292.4,430.15,280.1,400.45,280.1,368.95z" fill="#4d4d4d"/>
		</g>
		<g>
			<path d="M398.2,278.35c-50,0-90.6,40.6-90.6,90.6s40.6,90.6,90.6,90.6s90.6-40.6,90.6-90.6S448.3,278.35,398.2,278.35z      M451.2,382.15h-39.8v39.8H385v-39.8h-39.8v-26.4H385v-39.8h26.4v39.8h39.8V382.15z" fill="#4d4d4d"/>
		</g>
	</g>
</g>
<g>
</g>
<g>
</g>
<g>
</g>
<g>
</g>
<g>
</g>
<g>
</g>
<g>
</g>
<g>
</g>
<g>
</g>
<g>
</g>
<g>
</g>
<g>
</g>
<g>
</g>
<g>
</g>
<g>
</g>
</svg>
