<?xml version="1.0" encoding="iso-8859-1"?>
<!-- Generator: Adobe Illustrator 16.0.0, SVG Export Plug-In . SVG Version: 6.00 Build 0)  -->
<!DOCTYPE svg PUBLIC "-//W3C//DTD SVG 1.1//EN" "http://www.w3.org/Graphics/SVG/1.1/DTD/svg11.dtd">
<svg xmlns="http://www.w3.org/2000/svg" xmlns:xlink="http://www.w3.org/1999/xlink" version="1.1" id="Capa_1" x="0px" y="0px" width="512px" height="512px" viewBox="0 0 490.993 490.993" style="enable-background:new 0 0 490.993 490.993;" xml:space="preserve">
<g>
	<g>
		<path d="M25.622,380.404h49.091c4.218-6.35,9.918-11.854,16.689-16.141V347.4c0-23.809,18.941-43.651,43.824-47.735    c-10.725-30.66-19.965-64.587-20.388-91.302H25.622V380.404z" fill="#888888"/>
		<path d="M355.766,299.665c24.883,4.084,43.824,23.929,43.824,47.735v16.863c6.771,4.287,12.473,9.791,16.689,16.141h49.09V208.363    h-89.215C375.731,235.078,366.491,269.005,355.766,299.665z" fill="#888888"/>
		<path d="M471.042,30.298c8.369,0,15.152-6.782,15.152-15.149C486.194,6.782,479.411,0,471.042,0H245.746h-0.5H19.95    C11.582,0,4.799,6.782,4.799,15.149c0,8.367,6.783,15.149,15.151,15.149h5.672v164.198h89.847    c0.157-1.545,0.619-4.441,1.975-7.429c2.99-6.59,8.314-13.529,17.142-18.087c69.123-35.69,100.56-118.188,107.464-138.683h3.197    h0.5h3.197c6.904,20.495,38.342,102.992,107.465,138.683c8.826,4.558,14.15,11.497,17.141,18.087    c1.355,2.987,1.818,5.883,1.977,7.429h89.846V30.298H471.042z" fill="#888888"/>
		<polygon points="330.749,189.223 271.841,180.663 245.496,127.282 219.151,180.663 160.243,189.223 202.869,230.773     192.807,289.444 245.496,261.744 298.185,289.444 288.124,230.773   " fill="#888888"/>
		<path d="M248.411,362.662c12.48,0,23.935,3.833,32.852,10.193v-26.791c0-15.752-14.911-28.521-33.305-28.521h-3.329    c-18.393,0-33.303,12.77-33.303,28.521v27.009c8.957-6.488,20.523-10.411,33.144-10.411H248.411z" fill="#888888"/>
		<path d="M148.284,317.544h-3.328c-18.394,0-33.304,12.771-33.304,28.521v18.451c4.671-1.199,9.615-1.854,14.734-1.854h3.942    c24.254,0,44.627,14.468,50.012,33.855c0.806-2.459,1.247-5.047,1.247-7.728v-42.728    C181.588,330.312,166.678,317.544,148.284,317.544z" fill="#888888"/>
		<path d="M364.604,362.662c5.121,0,10.064,0.652,14.734,1.854v-18.451c0-15.75-14.91-28.521-33.303-28.521h-3.328    c-18.393,0-33.305,12.771-33.305,28.521v42.728c0,2.681,0.441,5.27,1.248,7.728c5.385-19.389,25.758-33.855,50.012-33.855h3.941    V362.662z" fill="#888888"/>
		<path d="M248.411,378.742h-3.94c-21.79,0-39.455,14.366-39.455,32.089v48.073c0,17.723,17.665,32.089,39.455,32.089h3.94    c21.791,0,39.455-14.366,39.455-32.089v-48.073C287.866,393.108,270.202,378.742,248.411,378.742z" fill="#888888"/>
		<path d="M130.329,378.742h-3.942c-21.79,0-39.454,14.366-39.454,32.089v48.073c0,17.723,17.664,32.089,39.454,32.089h3.942    c21.791,0,39.455-14.366,39.455-32.089v-48.073C169.784,393.108,152.12,378.742,130.329,378.742z" fill="#888888"/>
		<path d="M364.604,378.742h-3.939c-21.793,0-39.457,14.366-39.457,32.089v48.073c0,17.723,17.664,32.089,39.457,32.089h3.939    c21.791,0,39.455-14.366,39.455-32.089v-48.073C404.059,393.108,386.395,378.742,364.604,378.742z" fill="#888888"/>
	</g>
</g>
<g>
</g>
<g>
</g>
<g>
</g>
<g>
</g>
<g>
</g>
<g>
</g>
<g>
</g>
<g>
</g>
<g>
</g>
<g>
</g>
<g>
</g>
<g>
</g>
<g>
</g>
<g>
</g>
<g>
</g>
</svg>
